<?xml version="1.0" encoding="utf-8"?>
<!-- Generator: Adobe Illustrator 21.0.0, SVG Export Plug-In . SVG Version: 6.00 Build 0)  -->
<svg version="1.1" id="Capa_1" xmlns="http://www.w3.org/2000/svg" xmlns:xlink="http://www.w3.org/1999/xlink" x="0px" y="0px"
	 viewBox="0 0 435.4 23.9" style="enable-background:new 0 0 435.4 23.9;" xml:space="preserve">
<style type="text/css">
	.st0{fill:#FFFFFF;}
</style>
<title>logo_horizontal</title>
<g>
	<g>
		<path class="st0" d="M207.1,16.5l-1.2-3h-3.8l-1.2,3h-1.1l3.8-9.5h0.9l3.7,9.5L207.1,16.5z M205.6,12.4l-1.1-2.9
			c-0.1-0.4-0.3-0.8-0.4-1.4c-0.1,0.5-0.3,0.9-0.5,1.4l-1.1,2.9H205.6z"/>
		<path class="st0" d="M218.2,9.7c0,0.9-0.3,1.7-1,2.2c-0.8,0.6-1.8,0.8-2.8,0.8h-1.1v3.7h-1.1V7h2.5C217,7,218.2,7.9,218.2,9.7z
			 M213.3,11.8h1c0.7,0.1,1.5-0.1,2.1-0.5c0.5-0.4,0.7-0.9,0.7-1.5c0-0.5-0.2-1.1-0.6-1.4c-0.6-0.3-1.2-0.5-1.9-0.5h-1.2L213.3,11.8
			z"/>
		<path class="st0" d="M228.9,9.7c0,0.9-0.3,1.7-1,2.2c-0.8,0.6-1.8,0.8-2.8,0.8H224v3.7h-1.1V7h2.5C227.7,7,228.9,7.9,228.9,9.7z
			 M224,11.8h1c0.7,0.1,1.5-0.1,2.1-0.5c0.5-0.4,0.7-0.9,0.7-1.5c0-0.5-0.2-1.1-0.6-1.4c-0.6-0.3-1.2-0.5-1.9-0.5H224V11.8z"/>
		<path class="st0" d="M238.9,13.9c0,0.8-0.3,1.5-0.9,2c-0.7,0.5-1.6,0.7-2.5,0.7c-0.9,0-1.8-0.1-2.6-0.4v-1.1
			c0.4,0.2,0.8,0.3,1.3,0.4c0.4,0.1,0.9,0.1,1.4,0.1c0.6,0,1.2-0.1,1.7-0.4c0.4-0.3,0.6-0.7,0.6-1.2c0-0.3-0.1-0.6-0.2-0.8
			c-0.2-0.2-0.4-0.4-0.7-0.6c-0.5-0.2-0.9-0.4-1.4-0.6c-0.7-0.2-1.4-0.6-1.9-1.1c-0.4-0.5-0.6-1.1-0.6-1.7c0-0.7,0.3-1.3,0.8-1.7
			c0.6-0.5,1.4-0.7,2.2-0.6c0.9,0,1.8,0.2,2.6,0.5l-0.3,1c-0.7-0.3-1.5-0.5-2.3-0.5c-0.5,0-1,0.1-1.4,0.4c-0.3,0.2-0.5,0.6-0.5,1
			c0,0.3,0,0.6,0.2,0.8c0.2,0.2,0.4,0.4,0.6,0.6c0.4,0.2,0.9,0.4,1.3,0.6c0.8,0.2,1.5,0.6,2.1,1.1C238.7,12.8,238.9,13.3,238.9,13.9
			z"/>
		<path class="st0" d="M257,16.5h-1.3l-5.2-8h-0.1c0.1,0.9,0.1,1.8,0.1,2.6v5.4h-1V7h1.2l5.2,7.9h0.1c0-0.1,0-0.5-0.1-1.1
			c-0.1-0.6,0-1.1,0-1.4V7h1L257,16.5z"/>
		<path class="st0" d="M267.6,16.5h-5.3V7h5.3v1h-4.2V11h3.9v1h-3.9v3.5h4.2V16.5z"/>
		<path class="st0" d="M279.5,7v6.1c0.1,1-0.3,1.9-1,2.6c-0.7,0.6-1.7,1-2.7,0.9c-1,0.1-2-0.2-2.7-0.9c-0.6-0.7-1-1.6-0.9-2.6V7h1.1
			v6.2c0,0.7,0.2,1.3,0.6,1.8c0.5,0.5,1.2,0.7,1.9,0.6c0.7,0,1.3-0.2,1.8-0.6c0.4-0.5,0.7-1.1,0.6-1.8V7H279.5z"/>
		<path class="st0" d="M293,11.7c0,1.1-0.2,2.1-0.7,3c-0.5,0.8-1.2,1.4-2.1,1.6l2.2,2.4h-1.6l-1.8-2.2h-0.4
			c-1.2,0.1-2.4-0.4-3.2-1.3c-0.8-1-1.2-2.3-1.1-3.6c-0.1-1.3,0.3-2.6,1.1-3.6c0.8-0.9,2-1.3,3.2-1.3c1.2-0.1,2.4,0.4,3.2,1.3
			C292.6,9.1,293,10.4,293,11.7z M285.4,11.7c-0.1,1,0.2,2.1,0.8,2.9c1.3,1.3,3.4,1.3,4.7,0c0,0,0,0,0,0c0.6-0.9,0.9-1.9,0.8-2.9
			c0.1-1-0.2-2.1-0.8-2.9c-0.6-0.7-1.5-1.1-2.4-1c-0.9-0.1-1.8,0.3-2.4,1C285.6,9.6,285.3,10.7,285.4,11.7L285.4,11.7z"/>
		<path class="st0" d="M304.9,7v6.1c0.1,1-0.3,1.9-1,2.6c-0.7,0.6-1.7,1-2.7,0.9c-1,0.1-2-0.2-2.7-0.9c-0.6-0.7-1-1.6-0.9-2.6V7h1.1
			v6.2c0,0.7,0.2,1.3,0.6,1.8c0.5,0.5,1.2,0.7,1.9,0.6c0.7,0,1.3-0.2,1.8-0.6c0.4-0.5,0.7-1.1,0.6-1.8V7H304.9z"/>
		<path class="st0" d="M310.1,16.5V7h1.1v9.5H310.1z"/>
		<path class="st0" d="M323.9,16.5h-1.3l-5.2-8h-0.1c0.1,0.9,0.1,1.8,0.1,2.6v5.4h-1V7h1.2l5.2,7.9l0,0c0-0.1,0-0.5-0.1-1.1
			c-0.1-0.6,0-1.1,0-1.4V7h1V16.5z"/>
		<path class="st0" d="M335.1,16.5l-1.2-3h-3.8l-1.2,3h-1.1l3.8-9.5h0.9l3.7,9.5H335.1z M333.6,12.4l-1.1-2.9
			c-0.1-0.4-0.3-0.8-0.4-1.4c-0.1,0.5-0.2,0.9-0.4,1.4l-1.1,2.9H333.6z"/>
		<path class="st0" d="M345.6,13.9c0,0.8-0.3,1.5-0.9,2c-0.7,0.5-1.6,0.7-2.5,0.7c-0.9,0-1.8-0.1-2.6-0.4v-1.1
			c0.4,0.2,0.8,0.3,1.3,0.4c0.4,0.1,0.9,0.1,1.4,0.1c0.6,0,1.2-0.1,1.7-0.4c0.4-0.3,0.6-0.7,0.6-1.2c0-0.3-0.1-0.6-0.2-0.8
			c-0.2-0.2-0.4-0.4-0.7-0.6c-0.5-0.2-0.9-0.4-1.4-0.6c-0.7-0.2-1.4-0.6-1.9-1.1c-0.4-0.5-0.6-1.1-0.6-1.7c0-0.7,0.3-1.3,0.8-1.7
			c0.6-0.5,1.4-0.7,2.2-0.6c0.9,0,1.8,0.2,2.6,0.5l-0.3,1c-0.7-0.3-1.5-0.5-2.3-0.5c-0.5,0-1,0.1-1.4,0.4c-0.3,0.2-0.5,0.6-0.5,1
			c0,0.3,0,0.6,0.2,0.8c0.2,0.2,0.4,0.4,0.6,0.6c0.4,0.2,0.9,0.4,1.3,0.6c0.8,0.2,1.5,0.6,2.1,1.1C345.4,12.8,345.6,13.3,345.6,13.9
			z"/>
		<path class="st0" d="M363.9,11.6c0.1,1.3-0.4,2.6-1.3,3.6c-1,0.9-2.3,1.3-3.7,1.2h-2.6V7h2.9c1.3-0.1,2.5,0.4,3.4,1.2
			C363.5,9.1,364,10.4,363.9,11.6z M362.7,11.6c0.1-1-0.2-2-0.9-2.8c-0.8-0.7-1.8-1-2.8-0.9h-1.6v7.6h1.4c1.1,0.1,2.1-0.3,3-1
			C362.5,13.7,362.8,12.7,362.7,11.6L362.7,11.6z"/>
		<path class="st0" d="M374,16.5h-5.3V7h5.3v1h-4.2V11h3.9v1h-3.9v3.5h4.2V16.5z"/>
		<path class="st0" d="M390.2,13.9c0,0.8-0.3,1.5-0.9,2c-0.7,0.5-1.6,0.7-2.5,0.7c-0.9,0-1.8-0.1-2.6-0.4v-1.1
			c0.4,0.2,0.8,0.3,1.3,0.4c0.4,0.1,0.9,0.1,1.4,0.1c0.6,0,1.2-0.1,1.7-0.4c0.4-0.3,0.6-0.7,0.6-1.2c0-0.3-0.1-0.6-0.2-0.8
			c-0.2-0.2-0.4-0.4-0.7-0.6c-0.5-0.2-0.9-0.4-1.4-0.6c-0.7-0.2-1.4-0.6-1.9-1.1c-0.4-0.5-0.6-1.1-0.6-1.7c0-0.7,0.3-1.3,0.8-1.7
			c0.6-0.5,1.4-0.7,2.2-0.6c0.9,0,1.8,0.2,2.6,0.5l-0.3,1c-0.7-0.3-1.5-0.5-2.3-0.5c-0.5,0-1,0.1-1.4,0.4c-0.3,0.2-0.5,0.6-0.5,1
			c0,0.3,0,0.6,0.2,0.8c0.2,0.2,0.4,0.4,0.6,0.6c0.4,0.2,0.9,0.4,1.3,0.6c0.8,0.2,1.5,0.6,2.1,1.1C390,12.8,390.2,13.3,390.2,13.9z"
			/>
		<path class="st0" d="M400.8,16.5l-1.2-3h-3.8l-1.2,3h-1.1l3.8-9.5h0.9l3.7,9.5H400.8z M399.2,12.4l-1.1-2.9
			c-0.1-0.4-0.3-0.8-0.4-1.4c-0.1,0.5-0.2,0.9-0.4,1.4l-1.1,2.9H399.2z"/>
		<path class="st0" d="M405.9,16.5V7h1.1v8.5h4.2v1L405.9,16.5z"/>
		<path class="st0" d="M422.6,7v6.1c0,1-0.3,1.9-1,2.6c-0.7,0.6-1.7,1-2.7,0.9c-1,0.1-2-0.2-2.7-0.9c-0.6-0.7-1-1.6-0.9-2.6V7h1.1
			v6.2c0,0.7,0.2,1.3,0.6,1.8c0.5,0.5,1.2,0.7,1.9,0.6c0.7,0,1.3-0.2,1.8-0.6c0.4-0.5,0.7-1.1,0.6-1.8V7H422.6z"/>
		<path class="st0" d="M435.4,11.6c0.1,1.3-0.4,2.6-1.3,3.6c-1,0.9-2.3,1.3-3.7,1.2h-2.6V7h2.9c1.3-0.1,2.5,0.4,3.5,1.2
			C435,9.1,435.4,10.4,435.4,11.6z M434.2,11.6c0.1-1-0.2-2-0.9-2.8c-0.8-0.7-1.8-1-2.8-0.9h-1.6v7.6h1.3c1.1,0.1,2.1-0.3,3-1
			C433.9,13.7,434.3,12.7,434.2,11.6L434.2,11.6z"/>
	</g>
	<path class="st0" d="M69.1,17.6c-0.2,0-0.3,0-0.4-0.1c-0.1-0.1-0.3-0.2-0.3-0.4l-1.6-3.6l-2.7-6.3l-4.3,9.9
		c-0.1,0.3-0.4,0.5-0.7,0.5c-0.2,0-0.4-0.1-0.5-0.2c-0.1-0.1-0.2-0.3-0.3-0.5c0-0.1,0-0.2,0-0.4l5-11.8c0.1-0.2,0.2-0.3,0.3-0.4
		c0.1-0.1,0.3-0.1,0.4-0.1c0.3,0,0.6,0.2,0.7,0.5l5,11.7c0,0.1,0.1,0.2,0.1,0.3c0,0.2-0.1,0.4-0.3,0.6
		C69.4,17.6,69.3,17.6,69.1,17.6z"/>
	<path class="st0" d="M108.1,17.8c-1,0-1.1-0.6-1.1-0.8c0-0.4,0.3-0.8,1.1-0.8h4.8c1.3,0.1,2.5-0.4,3.3-1.4c0.8-1.1,1.2-2.4,1.1-3.8
		c0-0.9-0.2-1.8-0.5-2.6c-0.3-0.7-0.8-1.3-1.4-1.7c-0.7-0.4-1.6-0.6-2.5-0.6h-4.7c-0.2,0-0.4,0-0.6-0.1c-0.3-0.1-0.6-0.4-0.6-0.7
		c0-0.2,0.1-0.8,1.1-0.8h4.9c1.1-0.1,2.3,0.2,3.2,0.8c0.9,0.6,1.5,1.4,1.9,2.4c0.4,1,0.6,2.1,0.6,3.2c0,1.1-0.2,2.3-0.6,3.3
		c-0.4,1-1.1,1.9-1.9,2.5c-1,0.7-2.1,1-3.2,1L108.1,17.8L108.1,17.8z"/>
	<path class="st0" d="M161.5,17.8c-0.9,0-1.8-0.2-2.6-0.5c-0.8-0.4-1.5-0.9-2.1-1.5c-0.2-0.1-0.2-0.3-0.2-0.6c0-0.2,0.1-0.4,0.3-0.6
		c0.1-0.2,0.3-0.2,0.6-0.3c0.2,0,0.5,0.1,0.6,0.3c0.4,0.5,1,0.9,1.6,1.1c0.6,0.3,1.3,0.4,1.9,0.4c0.8,0,1.5-0.2,2.1-0.6
		c0.5-0.3,0.8-0.8,0.8-1.4c0-0.4-0.1-0.8-0.4-1.1c-0.3-0.3-0.6-0.6-1-0.8c-0.6-0.3-1.2-0.5-1.8-0.7c-0.7-0.2-1.4-0.5-2.1-0.8
		c-0.5-0.3-1-0.6-1.4-1.1c-0.4-0.6-0.6-1.3-0.6-2c0-0.6,0.2-1.2,0.6-1.8c0.4-0.6,1-1,1.6-1.3c0.7-0.3,1.5-0.5,2.3-0.4
		c0.8,0,1.5,0.1,2.2,0.4c0.7,0.2,1.3,0.7,1.7,1.2c0.2,0.2,0.3,0.4,0.3,0.6c0,0.2-0.1,0.4-0.3,0.6c-0.2,0.1-0.4,0.2-0.6,0.2
		c-0.2,0-0.4-0.1-0.5-0.2c-0.3-0.4-0.7-0.7-1.2-0.9c-0.5-0.2-1.1-0.3-1.6-0.3c-0.8,0-1.5,0.2-2.1,0.6c-0.5,0.3-0.8,0.8-0.8,1.4
		c0,0.4,0.1,0.7,0.4,1c0.3,0.3,0.6,0.6,1,0.8c0.5,0.3,1.1,0.5,1.7,0.7c0.7,0.2,1.4,0.5,2.1,0.8c0.6,0.3,1.1,0.7,1.4,1.2
		c0.4,0.6,0.7,1.4,0.6,2.1c0,0.6-0.2,1.2-0.6,1.8c-0.4,0.6-1,1-1.6,1.3C163,17.7,162.2,17.8,161.5,17.8z"/>
	<path class="st0" d="M92.8,17.7c-0.2,0-0.5-0.1-0.6-0.3l-7.7-10V17c0,0.2-0.1,0.4-0.2,0.5c-0.1,0.1-0.3,0.2-0.5,0.2
		c-0.2,0-0.4-0.1-0.5-0.2C83.1,17.4,83,17.2,83,17V5.2c0-0.2,0.1-0.4,0.2-0.6c0.1-0.1,0.3-0.2,0.5-0.2c0.2,0,0.4,0.1,0.6,0.3
		l7.8,10.1V5.2c0-0.2,0.1-0.4,0.2-0.5c0.1-0.1,0.3-0.2,0.5-0.2c0.4,0,0.7,0.3,0.8,0.7c0,0,0,0,0,0v11.8c0,0.2-0.1,0.4-0.3,0.6
		C93.3,17.7,93.1,17.7,92.8,17.7z"/>
	<path class="st0" d="M132.9,6.2c-0.4,0-0.8-0.3-0.9-0.7c0-0.4,0.3-0.8,0.7-0.9c0.1,0,0.1,0,0.2,0h10.2c0.4,0,0.8,0.3,0.9,0.7
		c0,0.4-0.3,0.8-0.7,0.9c-0.1,0-0.1,0-0.2,0H132.9z"/>
	<path class="st0" d="M132.9,17.8c-0.4,0-0.8-0.4-0.7-0.9c0-0.4,0.3-0.7,0.7-0.7h10.2c0.4,0,0.8,0.3,0.9,0.7c0,0.4-0.3,0.8-0.7,0.9
		c-0.1,0-0.1,0-0.2,0H132.9z"/>
	<path class="st0" d="M142.8,10.9v0.6c0,0.3-0.2,0.5-0.5,0.5h-9.1c-0.3,0-0.5-0.2-0.5-0.5v-0.6c0-0.3,0.2-0.5,0.5-0.5h9.1
		C142.5,10.4,142.8,10.6,142.8,10.9z"/>
	<path class="st0" d="M45.1,19.3c-1.8-0.1-3.4-1.2-4.2-2.8c-1.1-1.7-2.3-3.5-7.4-2.1l0,0c-1.7,0.2-2.6,2.4-3.5,4.4
		c-0.2,0.4-0.4,0.8-0.5,1.2c-0.3-0.6-0.7-1.3-0.9-2c-0.8-1.8-1.5-4.1-2.2-6.3s-1.3-4-1.9-5.5c-1-2.5-1.8-4-2.7-4.2
		c-0.2-0.1-2.9-0.9-4.8,0.3c-1.3,0.7-2.3,3.2-3.7,6.6c-0.8,1.9-1.6,4-2.6,6.1c-0.9-1.4-1.8-2.6-2.9-2.6c-0.8,0-1.7,0.9-2.9,2.1
		s-3,3.1-4.8,3.8l0.3,0.9c2.1-0.8,3.8-2.5,5.2-4c0.9-0.9,1.8-1.8,2.2-1.8c0.6,0,1.5,1.4,2.3,2.4c0.3,0.5,0.6,1,0.9,1.4
		c0.2,0.2,0.4,0.5,0.6,0.7c0.3,0.4,0.8,0.6,1.3,0.7h0.2c2.1,0,3.5-4.2,5.1-8.7c0.4-1.1,0.8-2.3,1.2-3.4c0.7,1.7,1.3,3.8,2,6
		c2.2,6.7,3.6,10.9,5.4,11.1l0,0c0.8,0.2,1.6,0.2,2.3,0.3c3.9,0,4.9-2.5,5.8-4.8c0.3-0.8,0.7-1.6,1.2-2.4c0.3,0.3,0.5,0.6,0.8,0.9
		c1.2,1.4,2.5,2.9,4.5,3.1c0.2,0,0.3,0,0.5,0c1.1,0,2.2-0.2,3.3-0.6l2.1-0.7L45.1,19.3z M17.3,9.6c-1.2,3.4-2.8,8.1-4.2,8.1
		c-0.4,0-0.7-0.2-0.9-0.5c-0.2-0.2-0.4-0.4-0.5-0.6c-0.1-0.2-0.3-0.4-0.4-0.6c1.1-2.2,2.1-4.5,2.9-6.6c1.2-3,2.3-5.7,3.3-6.2l0,0
		c0.9-0.5,2-0.6,3-0.4v0.1c-0.4,0.5-0.7,1-1,1.6C18.6,6,17.9,7.8,17.3,9.6z M22.3,12.2c-0.8-2.6-1.6-5-2.4-6.9
		c0.1-0.2,0.2-0.4,0.3-0.6c0.1-0.3,0.3-0.6,0.5-0.9c0.2-0.3,0.5-0.6,0.8-0.8c0.6,0.3,1.3,1.8,2,3.6c0.6,1.5,1.2,3.3,1.8,5.2
		c0.8,2.3,1.5,4.6,2.3,6.5l0,0l0.2,0.4l0.1,0.2l0.1,0.2l0.1,0.3l0.1,0.1l0.1,0.3l0.1,0.2l0.1,0.2l0.1,0.3l0.1,0.1L29,21l0,0
		c-0.3,0.6-0.7,1.1-1.3,1.5c-0.2,0.1-0.5,0.2-0.7,0.1C25.7,22.5,23.7,16.5,22.3,12.2L22.3,12.2z M34.1,18.7
		c-0.9,2.3-1.8,4.4-5.5,4.2l0.1-0.1l0,0l0.1-0.1c0.4-0.5,0.7-1,1-1.5L30,21l0,0c0.3-0.5,0.5-1.1,0.8-1.7c0.8-1.9,1.7-3.9,3-3.9
		c0.6,0,1.2,0.3,1.6,0.7C34.9,16.9,34.5,17.8,34.1,18.7L34.1,18.7z M41.5,19.9c-1.7-0.2-2.8-1.5-3.9-2.8c-0.3-0.4-0.6-0.7-0.9-1l0,0
		l-0.2-0.2c-0.3-0.3-0.6-0.5-0.9-0.8h0l0,0c2.9-0.4,3.7,0.7,4.6,2.1c0.7,1.2,1.7,2.2,3,2.8C42.6,19.9,42.1,19.9,41.5,19.9L41.5,19.9
		z"/>
	<rect x="183.8" class="st0" width="1" height="23.5"/>
</g>
</svg>
